<svg xmlns="http://www.w3.org/2000/svg" width="900" height="180" viewBox="0 0 900 180" role="img" aria-labelledby="title desc">
  <title id="title">kube-insight logo</title>
  <desc id="desc">A Kubernetes-inspired hexagon with an eye and historical orbit lines next to the kube-insight wordmark.</desc>
  <defs>
    <linearGradient id="mark-gradient" x1="28" y1="22" x2="150" y2="154" gradientUnits="userSpaceOnUse">
      <stop offset="0" stop-color="#26c6da"/>
      <stop offset="0.52" stop-color="#4f7cff"/>
      <stop offset="1" stop-color="#7c3aed"/>
    </linearGradient>
    <linearGradient id="trace-gradient" x1="37" y1="90" x2="145" y2="90" gradientUnits="userSpaceOnUse">
      <stop offset="0" stop-color="#16a34a"/>
      <stop offset="1" stop-color="#f59e0b"/>
    </linearGradient>
    <filter id="soft-shadow" x="-20%" y="-25%" width="140%" height="150%">
      <feDropShadow dx="0" dy="10" stdDeviation="10" flood-color="#1e293b" flood-opacity="0.18"/>
    </filter>
  </defs>

  <rect width="900" height="180" rx="28" fill="#f8fafc"/>

  <g filter="url(#soft-shadow)">
    <path d="M90 20 151 55v70l-61 35-61-35V55L90 20Z" fill="url(#mark-gradient)"/>
    <path d="M90 35 138 62v56l-48 27-48-27V62l48-27Z" fill="#ffffff" opacity="0.14"/>
    <path d="M44 91c18-25 45-38 81-38" fill="none" stroke="#e0f2fe" stroke-width="8" stroke-linecap="round" opacity="0.82"/>
    <path d="M45 119c25 10 55 12 91 4" fill="none" stroke="#ddd6fe" stroke-width="8" stroke-linecap="round" opacity="0.75"/>
    <path d="M40 78c24 39 62 58 105 57" fill="none" stroke="url(#trace-gradient)" stroke-width="5" stroke-linecap="round" opacity="0.96"/>
    <circle cx="42" cy="78" r="6" fill="#16a34a"/>
    <circle cx="145" cy="135" r="6" fill="#f59e0b"/>
    <path d="M51 91c8-16 23-27 39-27s31 11 39 27c-8 16-23 27-39 27S59 107 51 91Z" fill="#fff"/>
    <circle cx="90" cy="91" r="17" fill="#0f172a"/>
    <circle cx="96" cy="84" r="5" fill="#f8fafc"/>
    <path d="M90 47v10M90 125v10M52 70l9 5M128 108l9 5M128 70l-9 5M52 112l9-5" stroke="#e0f2fe" stroke-width="5" stroke-linecap="round"/>
  </g>

  <g fill="#0f172a">
    <text x="190" y="82" font-family="Inter, ui-sans-serif, system-ui, -apple-system, BlinkMacSystemFont, 'Segoe UI', sans-serif" font-size="47" font-weight="800" letter-spacing="0">kube-insight</text>
    <text x="192" y="122" font-family="Inter, ui-sans-serif, system-ui, -apple-system, BlinkMacSystemFont, 'Segoe UI', sans-serif" font-size="18" font-weight="500" fill="#475569">Historical Kubernetes evidence for humans and agents</text>
  </g>

  <g transform="translate(762 54)">
    <rect x="0" y="0" width="92" height="72" rx="14" fill="#e0f2fe"/>
    <path d="M20 22h52M20 37h38M20 52h46" stroke="#0369a1" stroke-width="5" stroke-linecap="round"/>
    <circle cx="72" cy="22" r="5" fill="#16a34a"/>
  </g>
</svg>
